<?xml version="1.0" encoding="UTF-8"?>
<svg xmlns="http://www.w3.org/2000/svg" xmlns:xlink="http://www.w3.org/1999/xlink" width="128px" height="128px" viewBox="0 0 128 128" version="1.1">
<defs>
<radialGradient id="radial0" gradientUnits="userSpaceOnUse" cx="-292.472321" cy="266.720093" fx="-292.472321" fy="266.720093" r="48" gradientTransform="matrix(2.311503,0,0,2.263346,759.456573,-489.901245)">
<stop offset="0" style="stop-color:rgb(99.215686%,52.549022%,85.882354%);stop-opacity:1;"/>
<stop offset="1" style="stop-color:rgb(6.27451%,18.431373%,62.352943%);stop-opacity:1;"/>
</radialGradient>
<radialGradient id="radial1" gradientUnits="userSpaceOnUse" cx="-329.945679" cy="231.138504" fx="-329.945679" fy="231.138504" r="48" gradientTransform="matrix(1.370301,0.859835,-0.686349,1.09382,620.530807,81.012634)">
<stop offset="0" style="stop-color:rgb(74.117649%,90.980393%,96.862745%);stop-opacity:1;"/>
<stop offset="1" style="stop-color:rgb(68.235296%,87.450981%,87.058824%);stop-opacity:0.0156863;"/>
</radialGradient>
<linearGradient id="linear0" gradientUnits="userSpaceOnUse" x1="88.595886" y1="-449.394012" x2="536.595886" y2="-449.394012" gradientTransform="matrix(0.232143,0,0,0.328947,-12.56691,261.826965)">
<stop offset="0" style="stop-color:rgb(75.294119%,74.901962%,73.725492%);stop-opacity:1;"/>
<stop offset="0.0384615" style="stop-color:rgb(87.058824%,86.666667%,85.490197%);stop-opacity:1;"/>
<stop offset="0.0768555" style="stop-color:rgb(75.294119%,74.901962%,73.725492%);stop-opacity:1;"/>
<stop offset="0.923077" style="stop-color:rgb(75.294119%,74.901962%,73.725492%);stop-opacity:1;"/>
<stop offset="0.961538" style="stop-color:rgb(75.294119%,74.901962%,73.725492%);stop-opacity:1;"/>
<stop offset="1" style="stop-color:rgb(46.666667%,46.27451%,48.235294%);stop-opacity:1;"/>
</linearGradient>
</defs>
<g id="surface144689">
<path style=" stroke:none;fill-rule:nonzero;fill:rgb(58.431375%,38.039216%,75.294119%);fill-opacity:1;" d="M 24 18 L 104 18 C 108.417969 18 112 21.582031 112 26 L 112 102 C 112 106.417969 108.417969 110 104 110 L 24 110 C 19.582031 110 16 106.417969 16 102 L 16 26 C 16 21.582031 19.582031 18 24 18 Z M 24 18 "/>
<path style=" stroke:none;fill-rule:nonzero;fill:url(#radial0);" d="M 24 16 L 104 16 C 108.417969 16 112 19.582031 112 24 L 112 100 C 112 104.417969 108.417969 108 104 108 L 24 108 C 19.582031 108 16 104.417969 16 100 L 16 24 C 16 19.582031 19.582031 16 24 16 Z M 24 16 "/>
<path style=" stroke:none;fill-rule:nonzero;fill:url(#radial1);" d="M 24 16 L 104 16 C 108.417969 16 112 19.582031 112 24 L 112 100 C 112 104.417969 108.417969 108 104 108 L 24 108 C 19.582031 108 16 104.417969 16 100 L 16 24 C 16 19.582031 19.582031 16 24 16 Z M 24 16 "/>
<path style=" stroke:none;fill-rule:nonzero;fill:rgb(75.294119%,74.901962%,73.725492%);fill-opacity:1;" d="M 120 62 L 120 18 C 120 13.566406 116.433594 10 112 10 L 64 10 L 64 22 L 106 22 C 107.109375 22 108 22.890625 108 24 L 108 62 Z M 120 62 "/>
<path style=" stroke:none;fill-rule:nonzero;fill:url(#linear0);" d="M 8 62 L 8 106 C 8 110.433594 11.566406 114 16 114 L 64 114 L 64 102 L 22 102 C 20.890625 102 20 101.109375 20 100 L 20 62 Z M 8 62 "/>
<path style=" stroke:none;fill-rule:nonzero;fill:rgb(96.470588%,96.078432%,95.686275%);fill-opacity:1;" d="M 8 60 L 8 104 C 8 108.433594 11.566406 112 16 112 L 64 112 L 64 100 L 22 100 C 20.890625 100 20 99.109375 20 98 L 20 60 Z M 8 60 "/>
<path style=" stroke:none;fill-rule:nonzero;fill:rgb(96.470588%,96.078432%,95.686275%);fill-opacity:1;" d="M 120 60 L 120 16 C 120 11.566406 116.433594 8 112 8 L 64 8 L 64 20 L 106 20 C 107.109375 20 108 20.890625 108 22 L 108 60 Z M 120 60 "/>
</g>
</svg>
